<svg width="137" height="154" viewBox="0 0 137 154" fill="none" xmlns="http://www.w3.org/2000/svg">
<path d="M72.9094 41.4656C76.2507 44.5307 80.4361 46.5207 84.9225 47.1775C89.4089 47.8343 93.9891 47.1274 98.0687 45.1487C107.406 40.6875 108.132 28.9378 108.236 27.5372C108.34 26.1365 104.449 24.9434 94.8266 21.5715C88.7085 19.3118 82.876 16.3433 77.4484 12.7269C76.9037 12.3897 73.4281 14.9834 70.5231 21.2603C67.6181 27.5372 66.6325 35.8372 72.9094 41.4656ZM74.6212 27.7187C75.3734 23.4909 77.7597 19.289 78.7453 19.4965C79.7309 19.704 85.9819 23.0759 92.6737 25.9809C99.3656 28.8859 103.049 29.4306 102.841 30.7275C101.729 34.5903 99.3662 37.9748 96.1234 40.3503C92.0253 42.944 86.9416 43.5925 80.5609 39.7019C74.1803 35.8112 73.8691 31.8428 74.6212 27.7187ZM91.4806 34.4106C92.7775 34.9553 92.4662 33.9697 93.2184 33.2175C93.9706 32.4653 90.8322 28.4969 89.5353 27.7187C89.5353 27.7187 87.3825 28.2634 87.175 28.9119C88.0925 31.0756 89.5807 32.9493 91.4806 34.3328V34.4106ZM86.2931 39.1572C86.6303 39.3906 88.1347 38.5087 88.6794 37.7565C89.2241 37.0044 83.6994 29.9753 83.4919 29.9753C82.61 30.4162 81.6503 30.4162 81.2094 31.1684C80.7684 31.9206 85.9819 38.8719 86.2931 39.0794V39.1572ZM55.7128 53.9934C54.5197 54.7715 45.7787 74.2247 46.4272 76.17C47.0756 78.1153 67.1772 88.0494 69.7709 87.1934C72.3647 86.3375 79.8087 68.5962 80.1459 66.7547C80.4831 64.9131 56.5428 53.4747 55.7128 53.9934ZM68.5 83.6141C68.1628 83.6141 50.5512 75.2881 50.3437 74.3284C50.1362 73.3687 56.1797 58.325 57.0356 58.0137C57.8916 57.7025 76.8259 66.6509 76.5925 67.6106C76.3591 68.5703 68.6816 83.6141 68.5 83.6141ZM66.0359 66.625C65.5691 67.5328 64.0387 69.53 67.2031 71.8125C70.3675 74.095 74.8028 69.2187 72.0016 66.625C69.2003 64.0312 66.84 65.0947 66.0359 66.625ZM63.3125 74.7694C62.9234 75.5216 61.6525 77.1816 64.2722 79.0491C66.8919 80.9166 70.6009 76.7925 68.2666 74.8472C65.9322 72.9019 63.9869 73.4206 63.3125 74.7694ZM74.725 88.2569C74.9315 89.4003 75.4732 90.4566 76.2812 91.2915C76.8259 91.7325 77.1372 90.8506 77.6819 89.9947C78.2266 89.1387 76.385 86.4153 76.385 86.4153C76.385 86.4153 74.8547 87.6084 74.725 88.2569ZM68.5 91.2915C69.39 93.4489 70.7144 95.4 72.3906 97.0237C72.9094 97.0237 72.9094 96.7903 73.5578 95.7269C74.2062 94.6634 71.405 90.0984 70.9641 89.7872C70.8344 89.7872 68.5 90.7469 68.5 91.2915ZM66.8659 92.8997C66.0649 93.2355 65.3345 93.7195 64.7131 94.3262C64.2722 94.9747 69.9006 101.874 69.9006 101.874C70.4524 101.314 70.8925 100.654 71.1975 99.9287C71.4828 98.9691 67.3847 93.1331 66.7362 92.8997H66.8659ZM60.9003 97.75C60.3556 98.5022 66.0878 105.531 67.1772 105.739C68.2666 105.946 67.8256 105.739 68.2406 104.546C68.6556 103.352 63.0531 95.9084 63.0531 95.9084C62.2664 96.4365 61.5439 97.0546 60.9003 97.75ZM58.6437 118.5C57.3469 118.267 57.1394 117.307 56.05 117.307C55.5409 117.792 55.2272 118.447 55.1681 119.148C55.2978 119.563 56.3612 119.693 57.2431 119.797C58.0696 120.034 58.838 120.441 59.4997 120.99C60.0444 121.301 60.1481 120.212 60.3556 119.563C60.5631 118.915 59.9406 118.63 58.6437 118.5ZM54.8569 123.454C53.4562 123.039 53.1191 121.846 52.2631 121.846C51.8771 122.043 51.5637 122.358 51.368 122.745C51.1722 123.132 51.1042 123.571 51.1737 123.999C51.5109 124.984 52.1594 124.543 53.2228 124.751C54.2862 124.958 55.4016 125.944 56.2575 126.177C57.1134 126.411 56.8022 125.633 57.0097 124.647C57.2172 123.662 56.2575 123.817 54.8569 123.376V123.454ZM30.1125 105.298C28.6859 104.753 29.1269 104.001 28.5822 104.001C27.9579 104.467 27.4734 105.095 27.1816 105.817C27.1816 106.257 27.3891 106.361 28.4784 106.802C29.2946 107.24 30.1675 107.563 31.0722 107.762C31.7206 107.762 31.9541 107.113 32.1616 106.595C32.3691 106.076 31.5131 105.868 30.1125 105.35V105.298ZM25.1325 109.292C23.3947 108.747 22.5387 105.791 21.8903 106.465C21.2419 107.139 20.2562 107.892 20.1525 108.54C20.0487 109.188 20.4897 108.851 21.5531 109.059C22.6166 109.266 23.4984 110.693 24.6916 111.652C25.0821 112.007 25.5532 112.26 26.0639 112.391C26.5746 112.523 27.1096 112.527 27.6225 112.405C28.3747 112.197 28.0375 111.108 27.9338 110.589C27.83 110.07 27 109.889 25.1325 109.344V109.292ZM133.629 81.2278C131.035 78.2191 118.611 75.8328 111.271 72.3831C107.326 70.6792 103.729 68.261 100.662 65.2503C102.044 62.9212 103.174 60.452 104.034 57.884C104.034 56.2759 95.2675 53.6822 95.2675 53.6822C95.2675 53.6822 97.8612 53.4747 103.49 49.1431C109.118 44.8116 114.409 37.4712 114.513 32.18C114.617 26.8887 116.873 13.7903 103.905 6.24248C90.9359 -1.30533 79.0566 -2.29096 67.5922 8.83623C64.2953 12.1233 61.9438 16.2371 60.7847 20.7461C59.6255 25.2551 59.7013 29.9929 61.0041 34.4625C61.0041 34.4625 53.8712 30.6497 52.9375 30.1309C52.0037 29.6122 51.5109 30.9869 51.5109 30.9869C50.8153 30.1394 49.9255 29.4721 48.9172 29.0415C47.6203 28.7044 46.8681 30.7794 46.8681 30.7794C45.9569 30.0909 44.9288 29.5724 43.8334 29.249C42.9775 29.249 41.2397 31.8428 41.2397 31.8428C40.4829 31.4943 39.7901 31.0208 39.1906 30.4422C38.5422 29.69 48.3725 9.04373 48.7097 8.29155C49.0469 7.53936 46.7644 6.44998 45.26 7.43561C43.7556 8.42123 35.0666 30.3125 35.6112 31.739C36.1559 33.1656 39.9428 34.1253 39.9428 34.1253C39.7863 35.2513 39.5698 36.3682 39.2944 37.4712C39.0609 37.9122 38.7497 37.7825 35.4037 36.4856C32.0578 35.1887 31.4094 32.9062 28.4784 30.0012C25.5475 27.0962 19.0372 19.315 16.9103 19.1075C14.036 18.8205 11.1358 19.2667 8.48063 20.4044C5.09754 21.7435 2.32706 24.2831 0.699377 27.5372C-0.26031 30.3384 2.43719 32.3875 5.67938 37.6787C9.35105 43.9377 13.351 49.9983 17.6625 55.835C19.1928 57.1319 24.4841 56.7169 26.9741 56.7169C30.2603 57.2294 33.4568 58.2076 36.4672 59.6219C37.2453 60.0628 36.4672 63.0715 32.0578 70.8528C27.6484 78.634 21.3456 90.7469 19.5041 93.1331C17.2822 96.2465 15.4447 99.6168 14.0312 103.171C12.5009 106.854 4.07125 120.367 3.31906 122.209C2.61688 124.127 2.61688 126.231 3.31906 128.149C3.9675 130.094 8.84375 135.178 14.8872 137.642C20.9306 140.106 27 139.483 29.5938 135.048C32.1875 130.613 43.0812 106.102 43.7297 104.701C44.3781 103.301 48.9172 103.819 49.5656 104.701C50.2141 105.583 49.0469 107.295 46.6606 113.235C44.2744 119.174 34.5478 137.772 33.4844 140.78C32.4209 143.789 35.6372 145.968 37.4788 147.265C39.3203 148.562 50.7588 153.542 53.0412 153.334C55.3237 153.127 57.8916 148.562 60.5891 144.904C63.2866 141.247 68.7853 127.059 69.9784 123.687C72.7855 116.921 75.9634 110.314 79.4975 103.897C82.3966 97.9192 85.8714 92.238 89.8725 86.9341C91.2731 85.7409 92.4662 89.5278 94.4116 90.3837C97.0116 91.5849 99.7217 92.5317 102.504 93.2109C106.939 94.5078 109.741 97.6462 118.067 101.2C126.392 104.753 131.372 104.001 134.718 97.3091C136.135 94.8175 136.787 91.9641 136.593 89.1045C136.4 86.2449 135.369 83.5056 133.629 81.2278ZM100.247 58.6622C100.014 59.6219 100.247 62.0081 99.1581 61.5672C98.0687 61.1262 95.8122 56.3797 95.6047 56.3797C95.3972 56.3797 100.455 57.6766 100.247 58.6622ZM68.5 17.6809C69.8851 14.8117 71.9266 12.3091 74.4591 10.3759C76.9916 8.44266 79.944 7.13326 83.0769 6.55373C90.495 5.15311 98.4319 8.6028 104.579 13.0381C110.726 17.4734 111.842 27.3037 109.352 34.5403C106.862 41.7769 100.144 48.8059 91.8437 49.4544C83.5437 50.1028 76.2812 48.7022 70.2119 42.4512C64.1425 36.2003 65.9062 22.8684 68.5 17.6809ZM53.2487 34.1253C53.9491 33.5806 60.8225 37.134 61.4709 37.9122C62.1194 38.6903 63.0791 40.065 62.5603 40.1687C62.0416 40.2725 57.0356 40.3762 55.1941 40.5059C53.3525 40.6356 51.4072 40.5059 51.5369 40.065C51.8766 38.0286 52.4421 36.0365 53.2228 34.1253H53.2487ZM48.8134 32.2837C48.8134 32.2837 50.655 32.7247 50.4475 33.1397C50.24 33.5547 49.1506 39.4165 48.6059 39.3128C48.0612 39.209 47.3091 39.3128 47.2053 38.8719C47.1016 38.4309 48.7875 32.2837 48.7875 32.2837H48.8134ZM41.7844 38.0937C42.3374 36.2065 43.0221 34.3604 43.8334 32.569C44.6116 32.569 45.0266 32.569 44.7931 33.7622C44.5597 34.9553 43.8334 38.9497 43.3925 38.7422C42.9516 38.5347 41.5509 38.4309 41.7844 38.0937ZM12.9159 39.9353C12.2675 39.1572 6.43156 30.079 6.63906 28.5747C6.84656 27.0703 9.46625 23.5947 15.4059 24.5803C16.8317 25.0536 18.074 25.9604 18.9594 27.174C20.1525 28.6784 23.3947 32.3615 22.435 33.01C21.4753 33.6584 17.0141 36.3559 15.4059 37.6528C13.7978 38.9497 13.5644 40.6875 12.9159 39.8575V39.9353ZM23.7319 132.973C21.8903 134.166 20.1525 134.27 15.4059 131.78C10.6594 129.29 8.48063 127.604 8.84375 125.114C9.20688 122.624 14.0312 114.739 14.8872 113.883C15.7431 113.027 17.6884 113.235 18.1294 114.428C18.5703 115.621 18.6741 119.927 20.9306 120.575C23.1872 121.223 23.9653 119.071 25.3659 120.134C26.7666 121.197 27.1038 122.52 27.9597 122.728C28.8156 122.935 29.905 123.039 29.8013 123.48C29.6975 123.921 25.5734 131.702 23.7319 132.895V132.973ZM32.9137 117.955C32.1616 119.563 31.1759 121.301 31.1759 121.301C31.1759 121.301 30.8647 121.95 29.8791 120.653C28.8934 119.356 27 117.022 26.0922 117.022C25.1844 117.022 23.7319 118.318 22.5387 117.437C21.3456 116.555 19.5041 112.042 18.2072 111.704C16.9103 111.367 15.9506 112.042 15.9506 111.289C17.9897 106.589 20.2932 102.008 22.85 97.5684C23.2131 97.1275 26.4294 99.5137 27.83 100.473C28.6952 101.311 29.7858 101.879 30.9684 102.107C32.1512 102.32 33.2439 102.879 34.1069 103.716C35.0666 104.468 37.8937 105.557 37.5566 106.102C37.2194 106.647 33.6659 116.243 32.9137 117.877V117.955ZM52.2631 147.68C49.1805 146.764 46.15 145.682 43.185 144.438C40.5912 143.348 39.6056 142.051 39.8391 141.092C41.3416 136.595 43.1173 132.195 45.1562 127.915C45.8566 127.241 45.8047 129.861 47.75 129.99C49.6953 130.12 50.5512 129.549 51.9778 129.99C53.4044 130.431 53.6897 132.351 55.9722 132.792C58.2547 133.232 60.1741 133.647 60.0703 134.088C59.9666 134.529 53.1191 147.706 52.2631 147.602V147.68ZM61.5487 130.483C59.5372 130.544 57.5392 130.135 55.7128 129.29C54.6234 128.434 53.6637 126.281 52.1594 126.489C50.8709 126.698 49.5572 126.698 48.2687 126.489C47.1794 126.281 46.3234 126.177 46.6347 125.088C46.9459 123.999 52.5744 112.664 53.56 112.431C55.4943 112.816 57.3521 113.517 59.0588 114.506C61.3412 115.673 61.6525 117.099 63.4941 117.955C65.3356 118.811 66.2953 118.5 66.2953 119.356C66.2953 120.212 62.4047 130.302 61.5487 130.405V130.483ZM110.83 91.0322C109.741 90.8247 101 87.2712 99.8066 86.7266C98.6134 86.1819 97.7575 86.4931 96.3569 84.7812C94.9562 83.0694 92.4662 78.1931 90.7284 78.0634C90.0519 77.9545 89.3584 78.0405 88.7291 78.3116C88.0997 78.5826 87.5606 79.0274 87.175 79.5937C86.6303 80.5534 79.9125 90.1762 77.8634 93.9631C75.8144 97.75 70.9641 110.174 69.6672 112.119C68.3703 114.065 67.8256 116.555 67.2809 116.217C64.7763 114.462 62.1788 112.843 59.4997 111.367C58.54 111.134 53.8713 109.967 54.1047 109.422C54.3381 108.877 57.5544 103.145 55.5053 101.641C51.8565 99.952 48.0023 98.7487 44.0409 98.0612C42.7441 97.75 39.1906 103.716 39.1906 103.716C36.5552 101.69 33.8103 99.8111 30.9684 98.0872C28.3747 96.6866 23.9394 95.8306 24.1469 95.0784C24.3544 94.3262 35.4037 74.3284 38.205 69.5559C41.0062 64.7834 44.4819 58.4287 41.9919 57.1319C37.4912 55.2967 32.8158 53.9236 28.0375 53.0337C26.0833 53.3131 24.0916 53.1627 22.2016 52.5928C21.0344 51.8406 14.4203 43.5147 14.965 42.0103C17.5068 39.2798 20.5547 37.0687 23.9394 35.5C24.5359 35.5 28.3747 40.48 34.9628 42.2956C40.5939 44.2224 46.438 45.4591 52.3669 45.9787C57.5544 45.9787 64.4797 45.434 65.3356 45.7712C66.1916 46.1084 65.3356 49.3247 74.4137 52.3594C79.0354 53.8428 83.8313 54.7148 88.6794 54.9531C89.1203 55.3941 94.3078 67.1697 97.4462 70.3081C100.585 73.4466 115.602 79.1528 115.058 80.1384C113.785 83.0689 112.668 86.0645 111.712 89.1128C111.478 90.4356 111.919 91.1878 110.83 90.9544V91.0322ZM129.427 95.0525C128.156 97.4387 127.378 97.75 125.744 97.75C121.906 96.6688 118.233 95.072 114.824 93.0034C114.176 92.2253 117.418 81.8503 118.404 81.4353C118.845 81.2278 128.545 84.0291 130.076 85.9744C131.606 87.9197 130.75 92.5625 129.427 94.9747V95.0525Z" fill="#EAEDFB"/>
</svg>
