<svg width="113" height="150" viewBox="0 0 113 150" fill="none" xmlns="http://www.w3.org/2000/svg">
<path d="M111.462 39.9066C111.462 38.9469 107.234 39.9066 107.234 39.9066C107.234 39.9066 107.234 33.3184 107.026 32.1253C106.819 30.9322 98.2594 31.6844 97.5072 31.9178C96.755 32.1512 97.2997 33.7334 97.1959 34.5116C97.0922 35.2897 82.6968 8.13312 82.2818 7.69219C81.8668 7.25125 80.1031 7.69219 80.1031 7.69219C80.0455 5.88463 79.8722 4.08261 79.5844 2.29719C79.2472 1.44125 71.3622 1.7525 70.2728 1.85625C69.1834 1.96 70.61 8.13312 70.61 8.13312C69.9974 8.07742 69.381 8.07742 68.7684 8.13312C68.12 8.13312 68.7684 26.0819 68.5609 26.2894C68.3534 26.4969 67.3678 26.2894 66.9268 26.0819C66.4859 25.8744 66.9268 25.3297 66.4859 24.785C66.045 24.2403 47.4737 24.785 46.929 24.785C46.3843 24.785 46.0731 26.9378 46.0731 26.9378C45.3969 26.8762 44.7377 26.6916 44.1278 26.3931C43.3756 25.9522 44.6725 8.67781 44.439 7.79594C44.2056 6.91406 42.8309 7.79594 42.8309 7.79594C42.8309 7.79594 42.8309 2.84188 42.6234 1.64875C42.4159 0.455625 31.4703 0.792813 30.4069 1.00031C29.3434 1.20781 29.8622 7.92562 29.8622 7.92562C28.9611 8.02684 28.0839 8.28123 27.2684 8.67781C26.4125 9.11875 15 40.2437 15 40.2437C14.3492 40.2494 13.6989 40.206 13.0547 40.1141C12.51 40.1141 13.0547 34.1744 13.0547 33.3184C13.0547 32.4625 5.27341 33.3184 4.52123 33.3184C3.76904 33.3184 4.52123 40.0103 4.52123 40.0103C3.52002 39.8056 2.48774 39.8056 1.48654 40.0103C0.293413 40.4512 -0.355025 92.2225 0.500912 104.206C1.35685 116.189 6.88154 126.045 16.4006 135.019C25.9197 143.994 41.8972 145.602 41.8972 145.602C42.3945 146.931 43.3032 148.067 44.4909 148.844C52.6937 149.523 60.9413 149.454 69.1315 148.637C70.9353 148.016 72.4308 146.725 73.3075 145.031C73.3075 145.031 80.3365 144.616 94.0575 136.939C107.778 129.261 111.565 111.416 112.655 104.724C113.744 98.0325 111.565 40.8922 111.462 39.9066ZM100.101 34.0706C100.101 33.7334 104.873 33.6297 104.977 34.4078C105.081 35.1859 105.185 39.0506 104.744 39.1544C104.303 39.2581 99.9972 39.1544 99.9972 39.1544C99.9972 39.1544 100.205 34.6153 100.101 34.0706ZM73.1 4.45C74.4913 4.22159 75.9105 4.22159 77.3018 4.45C77.3018 4.76125 77.7428 7.5625 77.3018 7.5625C76.8609 7.5625 72.7628 7.04375 72.7628 7.04375C72.7628 7.04375 72.5553 4.57969 73.1 4.45ZM73.6187 28.0272C73.6187 26.9378 73.4112 11.92 73.4112 11.92H79.4547L94.1612 40.0103C92.3424 38.4885 90.4277 37.085 88.429 35.8084C88.1178 35.8084 87.1322 36.8719 87.6768 37.2091C89.5565 38.5409 91.2948 40.0619 92.8643 41.7481C92.8643 42.1631 92.8643 45.3016 92.2159 45.7425C91.5675 46.1834 85.7315 39.9066 85.3943 40.0103C85.0572 40.1141 84.5384 41.4109 84.5384 41.4109C87.0058 43.4336 89.3205 45.6356 91.4637 47.9991C91.1454 49.1564 90.7289 50.2845 90.2187 51.3709C87.6987 48.9027 85.0308 46.59 82.23 44.4456C81.789 44.6531 81.0369 45.6387 81.2444 46.0797C81.4519 46.5206 89.0256 52.7716 88.7143 53.5237C88.2366 54.2562 87.6507 54.912 86.9765 55.4691C84.5481 52.65 81.9495 49.9821 79.1953 47.4803C78.6506 47.4803 77.25 48.9847 78.0022 49.3219C80.8759 51.5711 83.4863 54.1379 85.7834 56.9734L84.1753 58.1666C84.1753 58.1666 76.9128 50.3853 76.394 50.3853C75.8753 50.3853 75.0972 52.1231 75.5381 52.3306C75.979 52.5381 79.8437 56.9734 79.8437 56.9734C78.4234 56.289 76.9374 55.7502 75.4084 55.3653C74.2153 55.3653 73.4631 55.3653 73.4631 55.3653L68.4312 30.5172C68.4312 30.5172 73.515 29.0906 73.6187 28.0272ZM90.8153 73.0806C92.6547 79.4711 93.3829 86.1301 92.9681 92.7672C90.5752 90.9334 87.9609 89.4084 85.1869 88.2281C83.0138 87.4325 80.884 86.5234 78.8062 85.5047L74.8119 60.2156C75.3565 60.1119 87.7806 63.0428 90.8153 73.0806ZM49.86 28.6756C50.4565 27.7419 62.5953 28.1309 63.14 28.6756C63.6847 29.2203 65.9672 42.6041 65.9672 42.6041C65.9672 42.6041 63.3734 40.0103 63.0362 40.3475C62.699 40.6847 62.284 41.8519 62.5953 42.0594C64.0511 43.0377 65.3988 44.168 66.6156 45.4312C66.6156 45.95 67.1343 48.2325 67.1343 48.2325C66.0434 47.1859 64.8533 46.2477 63.5809 45.4312C63.2437 45.4312 62.8287 47.3766 63.2437 47.7916C64.7361 49.1152 66.1479 50.527 67.4715 52.0194C67.679 52.5641 68.9759 57.5181 68.9759 57.5181C68.9759 57.5181 63.7884 51.1375 63.14 51.3709C62.4915 51.6044 62.1803 53.5237 62.4915 53.9647C62.8028 54.4056 69.2094 60.4491 69.3131 60.89C69.4168 61.3309 70.169 65.1956 70.169 65.1956C70.169 65.1956 62.5953 56.4547 62.0765 56.8437C61.7738 57.1521 61.5625 57.5384 61.4664 57.9598C61.3702 58.3811 61.3929 58.8208 61.5318 59.23C61.7393 60.1897 70.5062 68.8528 70.9212 69.8125C71.3362 70.7722 72.4515 77.1528 72.4515 77.1528C72.4515 77.1528 61.6875 63.1466 61.0909 63.6912C60.822 64.1193 60.6441 64.5981 60.5682 65.0979C60.4924 65.5976 60.5202 66.1077 60.65 66.5962C60.8834 66.9334 72.5553 80.6544 72.7628 81.3028C72.9319 82.0454 73.0446 82.7998 73.1 83.5594L70.169 82.7812C70.169 82.7812 58.8344 69.1641 58.3934 69.3975C57.9525 69.6309 57.6412 71.1094 57.8487 71.5503C58.0562 71.9912 67.1343 82.1328 66.4859 82.1328C65.729 82.1314 64.9738 82.0619 64.2293 81.9253C63.8922 81.9253 57.5375 75.3372 57.2003 75.3372C56.884 75.61 56.6506 75.9662 56.5268 76.3651C56.403 76.7641 56.3937 77.1898 56.5 77.5937C57.715 79.0352 59.0141 80.4037 60.3906 81.6919C57.0824 81.4256 53.7566 81.469 50.4565 81.8216C47.294 81.9828 44.1474 82.3729 41.0412 82.9887C41.0412 82.9887 48.9781 29.9725 49.86 28.6756ZM32.5597 3.15313C33.3119 3.15313 40.3409 2.63437 40.1334 3.38656C39.9259 4.13875 40.8856 7.04375 40.1334 7.27719C39.3812 7.51062 33.0006 7.27719 32.3522 7.27719C31.7037 7.27719 31.8075 3.28281 32.5597 3.15313ZM16.1412 46.2872C16.1412 46.2872 30.1734 11.8162 30.8219 11.5828C33.7672 11.2626 36.732 11.1586 39.6925 11.2716C39.485 11.7125 39.2515 29.8687 40.0297 30.18C40.8078 30.4912 44.9837 31.4769 44.9837 31.4769L41.6378 49.8406C41.6378 49.8406 39.044 46.0797 38.6031 46.1834C38.1622 46.2872 37.2025 46.9356 37.5397 47.1431C37.8769 47.3506 40.9375 51.7859 40.9375 51.7859V54.7169L38.1103 55.5728C36.456 52.9644 34.6185 50.4767 32.6115 48.1287C32.0669 48.1287 30.5625 48.7772 30.9775 49.3219C31.3925 49.8666 35.75 56.2212 35.75 56.2212L33.1562 57.7516C31.3559 55.2647 29.3331 52.9467 27.1128 50.8262C26.4644 50.8262 25.6084 51.4747 25.9197 52.0194C26.2309 52.5641 31.6518 58.1666 31.1072 58.5037C30.5625 58.8409 29.6028 59.9044 29.6028 59.9044C27.6529 57.5114 25.5196 55.274 23.2222 53.2125C22.7812 53.42 22.2625 55.3653 22.2625 55.3653L28.0984 61.2012L26.6719 62.3944C24.4807 61.7418 22.49 60.546 20.8848 58.9181C19.2795 57.2901 18.1118 55.2829 17.49 53.0828C15.804 45.6387 16.1412 46.2872 16.1412 46.2872ZM36.8912 83.0406C34.1386 83.4768 31.4242 84.1273 28.7728 84.9859C24.9859 86.2828 20.9915 87.5797 20.9915 87.5797C20.9915 87.5797 21.4325 76.4266 25.6344 70.7203C29.8362 65.0141 37.0987 62.3944 38.9403 61.5125C39.6147 61.1494 36.8912 83.0406 36.8912 83.0406ZM6.62216 35.8084C7.37435 35.8084 10.409 35.0562 10.5128 35.8084C10.6165 36.5606 10.85 39.8028 10.3053 39.9066C9.19081 39.9677 8.07382 39.9677 6.95935 39.9066C6.95935 39.9066 5.86998 35.7047 6.62216 35.8084ZM5.42904 43.875C7.74354 43.5906 10.0801 43.5298 12.4062 43.6934C12.4062 43.6934 12.7434 54.6131 14.7925 57.9591C17.1114 61.1062 19.7162 64.0323 22.5737 66.7C20.0485 70.31 18.2836 74.3958 17.3862 78.7091C16.9259 81.9311 16.8562 85.1969 17.1787 88.4356C17.1787 88.4356 13.2881 90.1734 9.39748 92.2225C7.42735 93.1947 5.51358 94.2771 3.66529 95.4647C3.66529 95.4647 4.62498 44.6531 5.42904 43.875ZM39.1478 139.844C32.6877 138.763 26.599 136.088 21.4325 132.062C17.2076 128.627 13.685 124.408 11.0575 119.638C14.3604 116.908 17.825 114.378 21.4325 112.065C24.0784 115.312 26.9287 118.388 29.9659 121.272C32.9263 123.678 36.3529 125.444 40.0297 126.46C40.0297 126.46 39.9 139.844 39.2515 139.973L39.1478 139.844ZM69.1056 143.216C68.3275 143.423 46.514 144.072 45.5284 142.878C44.5428 141.685 45.2172 108.07 45.5284 107.655C46.6437 106.54 68.4572 107.422 69.2094 108.304C69.9615 109.186 69.9615 143.112 69.2094 143.345L69.1056 143.216ZM65.63 103.35C61.9469 103.35 46.7215 103.35 44.88 103.661C43.0384 103.972 40.9894 106.255 40.7819 111.442C40.8258 114.912 40.6091 118.38 40.1334 121.817C33.9848 119.495 28.9313 114.95 25.9715 109.082C25.9715 109.082 39.5887 94.0381 58.16 94.8162C76.7312 95.5944 89.6222 109.497 89.6222 109.497C89.6222 109.497 85.8353 113.18 82.2818 116.733C80.228 118.823 77.8554 120.574 75.2528 121.921C75.2528 121.921 75.564 111.027 74.2672 107.448C72.9703 103.868 69.3131 103.35 65.63 103.35ZM90.2187 134.267C85.6387 137.121 80.691 139.338 75.5122 140.855C74.8486 135.879 74.597 130.856 74.76 125.837C78.5322 124.314 82.0352 122.195 85.135 119.561C90.6597 115.022 92.7087 112.635 92.9162 112.532C93.1237 112.428 102.098 119.768 102.202 120.857C102.306 121.947 97.1959 130.143 90.2187 134.267ZM104.822 116.318C104.822 116.318 82.6968 98.3437 72.9703 93.6231C67.3795 91.2354 61.3272 90.1223 55.2527 90.3646C49.1782 90.6068 43.2338 92.1984 37.8509 95.0237C27.8131 100.937 8.56748 115.229 8.56748 115.229C5.79776 110.249 4.43494 104.61 4.62498 98.9144C4.62498 98.5772 32.404 84.545 58.3415 86.1531C84.279 87.7612 107.337 105.943 107.337 105.943L104.822 116.318ZM108.167 100.756C106.096 99.1324 103.841 97.757 101.45 96.6578C100.113 96.1729 98.8124 95.5921 97.559 94.92C97.559 94.92 98.7522 82.5997 96.3918 74.7147C94.0315 66.8297 93.02 65.6366 90.6597 63.3541C89.6897 62.4012 88.6397 61.5334 87.5212 60.7603C90.3962 58.4817 92.7862 55.6508 94.5503 52.4344C95.7058 49.8389 96.5755 47.1255 97.144 44.3419C97.6628 44.3419 106.637 44.3419 106.871 44.8866C107.104 45.4312 108.375 87.9687 108.531 93.1562C108.738 95.6927 108.633 98.2449 108.219 100.756H108.167ZM26.7237 80.8619C26.9312 81.1991 28.0206 80.8619 28.5653 80.8619C29.11 80.8619 28.5653 79.0462 29.3175 76.2191C30.0697 73.3919 32.1187 72.6656 32.4559 71.7837C32.7931 70.9019 31.6519 69.7606 31.0553 70.0719C29.2135 71.5171 27.8268 73.4621 27.0609 75.6744C26.5908 77.3616 26.476 79.128 26.7237 80.8619ZM11.8097 97.41C10.587 98.2429 9.68445 99.4674 9.2507 100.882C8.81696 102.296 8.87787 103.816 9.42341 105.191C9.93648 106.048 10.693 106.733 11.5965 107.159C12.5001 107.584 13.5099 107.731 14.4974 107.581C15.4848 107.431 16.4052 106.99 17.1414 106.315C17.8776 105.64 18.3962 104.761 18.6312 103.791C19.025 102.853 19.1221 101.816 18.9094 100.822C18.6966 99.8267 18.1843 98.9209 17.4413 98.2259C16.6984 97.531 15.7604 97.0802 14.7535 96.9344C13.7467 96.7885 12.7193 96.9545 11.8097 97.41ZM16.4006 103.064C16.3022 103.595 16.0406 104.082 15.6523 104.457C15.264 104.832 14.7683 105.077 14.2344 105.157C13.7004 105.237 13.1549 105.148 12.6737 104.903C12.1926 104.658 11.7999 104.269 11.5503 103.791C11.2585 103.066 11.2256 102.262 11.4571 101.516C11.6886 100.769 12.1704 100.125 12.8212 99.6925C13.3003 99.4362 13.8478 99.3369 14.3865 99.4085C14.9251 99.4801 15.4276 99.7191 15.8231 100.092C16.2186 100.464 16.4871 100.952 16.5907 101.485C16.6943 102.018 16.6278 102.571 16.4006 103.064ZM96.8068 108.978C97.4658 109.436 98.2493 109.68 99.0514 109.677C99.8535 109.675 100.636 109.427 101.292 108.966C101.948 108.504 102.447 107.853 102.721 107.099C102.995 106.345 103.031 105.525 102.824 104.75C102.37 103.684 101.571 102.8 100.555 102.241C99.5399 101.681 98.3663 101.478 97.2218 101.664C96.4841 101.927 95.8407 102.402 95.3725 103.029C94.9042 103.657 94.6322 104.409 94.5906 105.191C94.549 105.973 94.7397 106.75 95.1387 107.424C95.5377 108.098 96.1271 108.639 96.8328 108.978H96.8068ZM98 103.531C98.6068 103.405 99.2385 103.501 99.7809 103.801C100.323 104.101 100.74 104.585 100.957 105.165C101.023 105.564 100.975 105.974 100.819 106.347C100.663 106.72 100.405 107.042 100.075 107.275C99.7444 107.508 99.355 107.644 98.9512 107.666C98.5474 107.688 98.1455 107.596 97.7916 107.401C97.4376 107.205 97.1459 106.914 96.9499 106.56C96.7538 106.206 96.6614 105.804 96.6832 105.401C96.7049 104.997 96.84 104.607 97.0729 104.277C97.3057 103.946 97.6271 103.688 98 103.531ZM34.6087 112.739C33.3119 111.131 32.2484 108.07 32.015 107.992C31.0185 108.085 30.0928 108.547 29.4212 109.289C28.9803 110.042 30.6143 112.324 32.015 114.036C33.5746 115.672 35.5598 116.839 37.7472 117.408C37.9583 117.136 38.0975 116.815 38.1519 116.475C38.2063 116.135 38.1742 115.787 38.0584 115.462C37.6434 114.918 35.9056 114.373 34.6087 112.739ZM21.64 119.223C19.9307 120.451 18.4327 121.95 17.2047 123.659C16.8934 124.411 18.0865 124.956 18.6312 124.852C20.1948 123.733 21.5473 122.345 22.6256 120.754C22.7812 120.105 22.1328 119.223 21.64 119.223ZM25.375 124.1C24.0345 125.746 22.8041 127.479 21.6919 129.287C21.3806 129.832 22.6775 130.143 22.9887 130.377C24.5737 128.941 25.9605 127.302 27.1128 125.5C27.3722 124.956 25.8159 123.892 25.375 124.1ZM29.2656 134.475C30.5098 132.928 31.5797 131.25 32.4559 129.469C32.8969 128.613 31.0034 127.705 30.6144 128.276C30.2253 128.846 28.0206 133.256 28.0206 133.8C28.0206 134.345 29.0062 134.267 29.3175 134.371L29.2656 134.475ZM52.8169 112.635C51.7146 113.491 50.8791 114.643 50.4082 115.957C49.9373 117.27 49.8506 118.691 50.1582 120.052C50.4658 121.413 51.1549 122.658 52.1449 123.641C53.1349 124.625 54.3847 125.306 55.7478 125.604C61.1428 126.59 66.6675 122.466 64.385 116.085C63.9878 114.986 63.3409 113.995 62.4953 113.189C61.6498 112.382 60.6286 111.783 59.5122 111.439C58.3958 111.094 57.2147 111.014 56.0619 111.203C54.9091 111.393 53.816 111.848 52.8687 112.532L52.8169 112.635ZM56.5 122.517C55.7015 122.351 54.9675 121.959 54.3856 121.388C53.8038 120.816 53.3985 120.089 53.2181 119.294C53.0377 118.498 53.0898 117.668 53.3681 116.901C53.6465 116.135 54.1394 115.464 54.7881 114.97C55.3366 114.56 55.9733 114.285 56.6472 114.166C57.3211 114.047 58.0136 114.088 58.669 114.284C59.3245 114.481 59.9249 114.828 60.422 115.299C60.9191 115.769 61.2992 116.349 61.5318 116.993C61.8118 117.717 61.8846 118.504 61.742 119.267C61.5994 120.03 61.247 120.738 60.7245 121.311C60.2019 121.885 59.5299 122.302 58.7837 122.515C58.0375 122.728 57.2467 122.729 56.5 122.517ZM54.1915 131.829C53.3913 132.431 52.7821 133.251 52.4377 134.191C52.0932 135.131 52.0281 136.15 52.2502 137.127C52.4723 138.103 52.9722 138.994 53.6894 139.692C54.4067 140.391 55.3107 140.867 56.2925 141.063C57.2028 141.291 58.1578 141.267 59.0559 140.995C59.9539 140.723 60.7614 140.212 61.3922 139.518C62.023 138.823 62.4536 137.97 62.638 137.05C62.8225 136.13 62.7539 135.177 62.4397 134.293C62.1527 133.508 61.6862 132.801 61.0776 132.227C60.4689 131.654 59.7348 131.231 58.9338 130.992C58.1327 130.753 57.2868 130.704 56.4635 130.849C55.6402 130.994 54.8622 131.33 54.1915 131.829ZM56.7853 138.962C56.2133 138.845 55.6873 138.565 55.2704 138.156C54.8534 137.748 54.5632 137.227 54.4345 136.658C54.3058 136.088 54.3441 135.494 54.5449 134.946C54.7456 134.397 55.1002 133.919 55.5662 133.567C55.9574 133.274 56.4115 133.077 56.8924 132.991C57.3733 132.905 57.8677 132.932 58.3362 133.07C58.8047 133.209 59.2343 133.455 59.591 133.789C59.9477 134.123 60.2215 134.535 60.3906 134.993C60.5871 135.512 60.6364 136.075 60.5328 136.621C60.4293 137.166 60.177 137.672 59.8039 138.082C59.4307 138.493 58.9513 138.793 58.4186 138.948C57.8859 139.103 57.3206 139.108 56.7853 138.962ZM79.2472 127.653C78.9305 127.552 78.587 127.576 78.2878 127.721C77.9885 127.866 77.7563 128.12 77.639 128.431C78.2712 130.679 79.1407 132.852 80.2328 134.916C80.7183 134.933 81.2018 134.845 81.6497 134.657C82.0976 134.469 82.4992 134.185 82.8265 133.826C83.475 132.97 79.8437 127.99 79.2472 127.653ZM85.1869 124.748C84.7719 124.748 83.8122 125.163 83.89 125.604C83.9678 126.045 86.8209 130.792 86.8209 130.792C87.5145 130.391 88.1662 129.922 88.7662 129.391C89.4147 128.846 85.6278 124.748 85.1869 124.748ZM91.2562 119.561C90.919 119.327 89.7259 120.105 89.7259 120.624C89.7259 121.143 93.2015 127.005 93.9537 126.797C94.7059 126.59 95.0172 126.252 95.4581 125.397C95.899 124.541 91.5675 119.664 91.2562 119.457V119.561ZM30.4069 25.0703C31.7567 22.4323 32.9182 19.702 33.8825 16.9C33.8825 16.485 32.6115 16.0181 32.2743 16.2516C30.6416 18.983 29.2029 21.8259 27.9687 24.7591C27.9687 25.0703 29.9919 25.3297 30.4069 25.0703Z" fill="#EAEDFB"/>
</svg>
