<?xml version="1.0" encoding="iso-8859-1"?>
<!-- Uploaded to: SVG Repo, www.svgrepo.com, Generator: SVG Repo Mixer Tools -->
<svg fill="#EAEDFB" height="150" width="113" version="1.1" id="Layer_1" xmlns="http://www.w3.org/2000/svg" xmlns:xlink="http://www.w3.org/1999/xlink" 
	 viewBox="0 0 512 512" xml:space="preserve">
<g>
	<g>
		<path d="M495.468,165.146l0.004-0.002c-0.014-0.036-0.044-0.114-0.085-0.212c-12.676-33.361-32.378-63.961-58.369-89.952
			C388.667,26.629,324.381,0,256,0S123.334,26.629,74.981,74.981C26.629,123.334,0,187.62,0,256s26.629,132.667,74.981,181.019
			C123.334,485.371,187.62,512,256,512s132.667-26.629,181.019-74.981C485.371,388.666,512,324.38,512,256
			C512,224.455,506.32,193.786,495.468,165.146z M256,16c21.424,0,42.414,2.803,62.566,8.207
			c-38.198,10.893-66.932,8.129-85.317,3.25c-8.204-2.177-15.02-4.928-20.43-7.593C226.926,17.317,241.361,16,256,16z
			 M190.459,25.024c5.913,4.395,18.466,12.353,37.567,17.597c10.396,2.854,23.721,5.125,39.803,5.125
			c20.861,0,46.375-3.844,76.131-15.169c30.272,11.909,58.052,30.025,81.745,53.719c11.484,11.484,21.655,23.931,30.45,37.152
			c-35.505-21.563-84.356-28.081-145.287-19.367c-73.729,10.546-129.05-0.451-162.476-11.532
			c-21.695-7.192-37.224-15.345-46.235-20.761C128.22,49.946,158.223,34.118,190.459,25.024z M86.294,86.294
			c1.137-1.137,2.291-2.252,3.446-3.364c8.881,5.719,26.533,15.736,52.75,24.516c63.767,21.359,127.992,18.572,170.642,12.472
			c39.974-5.717,96.088-7.189,136.425,18.255c18.77,11.841,28.341,26.3,30.874,32.459c7.148,18.814,11.901,38.566,14.116,58.881
			c-8.344,6.188-25.807,15.449-51.559,20.11c-64.961,11.756-140.217-11.461-191.91-33.008
			c-43.652-18.195-83.884-26.94-119.589-25.956c-29.03,0.79-55.141,7.945-77.608,21.265c-16.937,10.042-29.164,22.011-37.6,32.384
			C19.127,184.594,43.731,128.858,86.294,86.294z M256,496c-17.35,0-34.413-1.844-50.98-5.41
			c6.296-3.603,14.561-7.493,24.862-10.665c37.083-11.42,76.687-6.511,108.043,1.784C312.009,491.097,284.383,496,256,496z
			 M425.706,425.706c-19.165,19.164-41.007,34.672-64.673,46.209c-35.764-11.869-88.056-22.43-137.035-6.914
			c-19.582,6.203-32.664,14.709-39.67,20.154c-36.607-11.401-70.149-31.564-98.034-59.449c-7.049-7.049-13.603-14.46-19.651-22.189
			c22.672-10.71,101.945-40.83,202.1,3.791c33.337,14.853,63.342,20.112,89.126,20.112c25.528,0,46.918-5.157,63.293-11.266
			c8.196-3.058,15.549-6.482,22.043-9.954C437.761,412.961,431.933,419.479,425.706,425.706z M466.244,370.444
			c-0.179,0.185-18.204,18.607-50.673,30.719c-43.808,16.343-91.018,13.494-140.316-8.47
			c-65.728-29.283-122.761-27.705-159.03-21.226c-29.38,5.249-50.062,14.332-59.158,18.895
			c-23.639-34.843-37.601-75.207-40.492-117.737c3.843-7.463,17.279-30.226,45.465-46.937
			c20.096-11.914,43.608-18.318,69.883-19.034c33.436-0.908,71.447,7.411,112.998,24.73c43.245,18.026,83.891,29.681,120.807,34.639
			c29.832,4.007,57.355,3.68,81.805-0.968c22.427-4.265,38.239-11.419,48.31-17.355c0.093,2.761,0.157,5.526,0.157,8.302
			c0,40.838-10.146,80.11-29.218,114.963L466.244,370.444z"/>
	</g>
</g>
</svg>
